<svg width="120" height="120" fill="none" xmlns="http://www.w3.org/2000/svg"><path fill-rule="evenodd" clip-rule="evenodd" d="M63.153 69H42.846l-.666-4h21.64l-.667 4zM65 63H41a1 1 0 00-1 1c0 .057.023.106.032.161l-.019.003 1 6 .02-.003c.08.473.472.839.967.839h22a.986.986 0 00.967-.839l.02.003 1-6-.02-.003c.01-.055.033-.104.033-.161a1 1 0 00-1-1zm14-12v-2c1.103 0 2 .897 2 2h-2zm-52-2v2h-2c0-1.103.897-2 2-2zm52-2c-1.103 0-2 .897-2 2v2h-1.082l-3.97-10.316C71.898 40.533 70.679 37 67 37H39c-3.679 0-4.898 3.533-4.934 3.641L30.082 51H29v-2c0-1.103-.897-2-2-2-2.206 0-4 1.794-4 4 0 1.103.897 2 2 2h4.312l-.197.514L26.2 57.4l.014.01A.976.976 0 0026 58v23c0 1.103.897 2 2 2h8c1.103 0 2-.897 2-2v-4h30v4c0 1.103.897 2 2 2h5v-2h-5v-6H36v6h-8V60.105l7.75.775-.72 2.878 1.94.484 1-4-.018-.004c.02-.079.048-.154.048-.238a.99.99 0 00-.902-.98l.002-.015-8.934-.894L30.8 54.6l-.014-.01a.976.976 0 00.142-.233l.006.002 5.013-13.038C35.979 41.227 36.776 39 39 39h28c2.224 0 3.021 2.227 3.066 2.359l5 13 .006-.002c.033.086.087.16.142.233l-.014.01 2.634 3.511-8.934.894.002.015A.99.99 0 0068 60c0 .084.028.159.049.237l-.019.005 1 4 1.94-.484-.72-2.878 7.75-.775V64h2v-6a.976.976 0 00-.214-.59l.014-.01-2.915-3.886-.198-.514H81c1.103 0 2-.897 2-2 0-2.206-1.794-4-4-4z" fill="#242D3D"/><path fill-rule="evenodd" clip-rule="evenodd" d="M74 67.734v7.275c.002.454.184 11.114 12 15.846 11.816-4.732 11.998-15.392 12-15.848v-7.273L86 63.14l-12 4.594zM86 93l-.357-.137c-7.034-2.692-10.37-7.386-11.93-10.849C72.02 78.254 72 75.14 72 75.01v-8.65L86 61l14 5.36v8.65c0 .125-.156 12.691-13.643 17.853L86 93z" fill="#4871D9"/><path fill-rule="evenodd" clip-rule="evenodd" d="M70.067 41.36C70.02 41.225 69.224 39 67 39H39c-2.224 0-3.021 2.226-3.053 2.321l-4.492 11.68c6.363-8.023 19.125-11.972 38.61-11.642zM86 65.281v23.403c-9.845-4.368-9.998-13.297-10-13.675v-5.9l10-3.828z" fill="#fff"/><path fill-rule="evenodd" clip-rule="evenodd" d="M70.067 41.36C70.02 41.225 69.224 39 67 39H39c-2.224 0-3.021 2.226-3.053 2.321l-4.492 11.68c6.363-8.023 19.125-11.972 38.61-11.642zM86 65.281v23.403c-9.845-4.368-9.998-13.297-10-13.675v-5.9l10-3.828z" fill="#4871D9" fill-opacity=".5"/></svg>