<svg width="120" height="120" fill="none" xmlns="http://www.w3.org/2000/svg"><path fill-rule="evenodd" clip-rule="evenodd" d="M60 18a6.996 6.996 0 016.883 5.765l.037.235H74v3h10c1.05 0 1.918.82 1.995 1.851L86 29v35h-2V29H74v5H46v-5H36v62h48V72h2v19c0 1.05-.82 1.918-1.851 1.995L84 93H36c-1.05 0-1.918-.82-1.995-1.851L34 91V29c0-1.05.82-1.918 1.851-1.994L36 27h10v-3h7.08c.48-3.39 3.4-6 6.92-6zM49 67c1.05 0 1.918.82 1.995 1.851L51 69v6c0 1.05-.82 1.918-1.851 1.995L49 77h-6c-1.05 0-1.918-.82-1.995-1.851L41 75v-6c0-1.05.82-1.918 1.851-1.995L43 67h6zm0 2h-6v6h6v-6zm0-17c1.05 0 1.918.82 1.995 1.851L51 54v6c0 1.05-.82 1.918-1.851 1.995L49 62h-6c-1.05 0-1.918-.82-1.995-1.851L41 60v-6c0-1.05.82-1.918 1.851-1.995L43 52h6zm0 2h-6v6h6v-6zm11-34a5.002 5.002 0 00-4.995 4.783L55 25v1h-7v6h24v-6h-7v-1c0-2.76-2.24-5-5-5z" fill="#242D3D"/><path fill-rule="evenodd" clip-rule="evenodd" d="M69 81.393l21.879-21.88 2.587 2.588L71.587 83.98H69v-2.587zm25.414-25.414l2.587 2.587-2.121 2.12-2.587-2.586 2.121-2.121zm4.001 4c.78-.778.78-2.048 0-2.827l-2.587-2.587a2.001 2.001 0 00-2.828 0L67.296 80.269h.001a.996.996 0 00-.297.71v5h5a.996.996 0 00.71-.296h.001L98.415 59.98z" fill="#4871D9"/><path fill-rule="evenodd" clip-rule="evenodd" d="M41 86h24v-4H41v4z" fill="#fff"/><path fill-rule="evenodd" clip-rule="evenodd" d="M41 86h24v-4H41v4z" fill="#4871D9" fill-opacity=".5"/></svg>