<svg width="120" height="120" fill="none" xmlns="http://www.w3.org/2000/svg"><path fill-rule="evenodd" clip-rule="evenodd" d="M63.153 69H42.846l-.666-4h21.64l-.667 4zM65 63H41a1 1 0 00-1 1c0 .057.023.106.032.161l-.019.003 1 6 .02-.003c.08.473.472.839.967.839h22a.986.986 0 00.967-.839l.02.003 1-6-.02-.003c.01-.055.033-.104.033-.161a1 1 0 00-1-1zm14-12v-2c1.103 0 2 .897 2 2h-2zm-52-2v2h-2c0-1.103.897-2 2-2zm52-2c-1.103 0-2 .897-2 2v2h-1.082l-3.97-10.316C71.898 40.533 70.679 37 67 37H39c-3.679 0-4.898 3.533-4.934 3.641L30.082 51H29v-2c0-1.103-.897-2-2-2-2.206 0-4 1.794-4 4 0 1.103.897 2 2 2h4.312l-.197.514L26.2 57.4l.014.01A.976.976 0 0026 58v23c0 1.103.897 2 2 2h8c1.103 0 2-.897 2-2v-4h30v4c0 1.103.897 2 2 2h8c1.103 0 2-.897 2-2v-1h-2v1h-8v-6H36v6h-8V60.105l7.75.775-.72 2.878 1.94.484 1-4-.018-.004c.02-.079.048-.154.048-.238a.99.99 0 00-.902-.98l.002-.015-8.934-.894L30.8 54.6l-.014-.01a.976.976 0 00.142-.233l.006.002 5.013-13.038C35.979 41.227 36.776 39 39 39h28c2.224 0 3.021 2.227 3.066 2.359l5 13 .006-.002c.033.086.087.16.142.233l-.014.01 2.8 3.733V60h2v-2a.976.976 0 00-.214-.59l.014-.01-2.915-3.886-.198-.514H81c1.103 0 2-.897 2-2 0-2.206-1.794-4-4-4z" fill="#242D3D"/><path fill-rule="evenodd" clip-rule="evenodd" d="M78 63a4 4 0 100 8 4 4 0 000-8zm0 2c1.103 0 2 .897 2 2s-.897 2-2 2-2-.897-2-2 .897-2 2-2zm11.41 24L72 71.59V61h10.59L100 78.41 89.41 89zm12-12l-17.7-17.71A.997.997 0 0083 59H72c-1.1 0-2 .9-2 2v11c0 .28.11.53.29.71L88 90.41a1.991 1.991 0 002.83 0l10.58-10.58a1.993 1.993 0 000-2.83z" fill="#4871D9"/><path fill-rule="evenodd" clip-rule="evenodd" d="M67 39c2.223 0 3.02 2.226 3.066 2.36-19.485-.33-32.247 3.618-38.61 11.64l4.491-11.679c.032-.095.83-2.32 3.053-2.32h28zm18.025 40.113l.077.188.004.011c.143.394.287.79.675 1.176.873.874 1.755.585 2.365.026l.102-.103-.695-.695c-.331.365-.704.449-1.07.085-.22-.221-.355-.492-.466-.738a52.76 52.76 0 01-.054-.127 9.383 9.383 0 00-.26-.577 4.64 4.64 0 00.755-.636c.229-.23.399-.483.543-.763l1.273 1.273.653-.654-1.553-1.552c.136-.56.297-1.094.67-1.467.518-.518 1.23-.67 1.84-.06.646.645.527 1.255-.067 1.849l-.042.043.746.746.084-.084c.942-.942.95-2.206-.042-3.198-1.06-1.06-2.34-1.07-3.273-.135l-.11.11c-.331.33-.56.866-.696 1.306l-.5-.501-.653.653.847.848c-.118.34-.278.67-.533.925a6.072 6.072 0 01-.51.44l-.058-.058c-.781-.73-1.561-.612-2.155.05l.73.73c.279-.28.559-.255.898.085.254.253.356.507.475.804z" fill="#fff"/><path fill-rule="evenodd" clip-rule="evenodd" d="M67 39c2.223 0 3.02 2.226 3.066 2.36-19.485-.33-32.247 3.618-38.61 11.64l4.491-11.679c.032-.095.83-2.32 3.053-2.32h28zm18.025 40.113l.077.188.004.011c.143.394.287.79.675 1.176.873.874 1.755.585 2.365.026l.102-.103-.695-.695c-.331.365-.704.449-1.07.085-.22-.221-.355-.492-.466-.738a52.76 52.76 0 01-.054-.127 9.383 9.383 0 00-.26-.577 4.64 4.64 0 00.755-.636c.229-.23.399-.483.543-.763l1.273 1.273.653-.654-1.553-1.552c.136-.56.297-1.094.67-1.467.518-.518 1.23-.67 1.84-.06.646.645.527 1.255-.067 1.849l-.042.043.746.746.084-.084c.942-.942.95-2.206-.042-3.198-1.06-1.06-2.34-1.07-3.273-.135l-.11.11c-.331.33-.56.866-.696 1.306l-.5-.501-.653.653.847.848c-.118.34-.278.67-.533.925a6.072 6.072 0 01-.51.44l-.058-.058c-.781-.73-1.561-.612-2.155.05l.73.73c.279-.28.559-.255.898.085.254.253.356.507.475.804z" fill="#4871D9" fill-opacity=".5"/></svg>