<svg width="120" height="120" fill="none" xmlns="http://www.w3.org/2000/svg"><path fill-rule="evenodd" clip-rule="evenodd" d="M66 27c1.05 0 1.918.82 1.994 1.852L68 29v32h1.3L64 67h27c.593.02 1.067.213 1.42.58s.523.67.51.91c.026.107.049.218.06.334L93 69v22c0 1.05-.82 1.918-1.852 1.995L91 93H56c-1.05 0-1.918-.82-1.995-1.851L54 91v-6H29c-1.05 0-1.918-.82-1.995-1.851L27 83V29c0-1.05.82-1.918 1.851-1.994L29 27h37zM56 68.45V91h35V69H58a3.959 3.959 0 01-1.8-.441l-.2-.109zM66 29H29v54h25V65a3.999 3.999 0 013.8-3.995L58 61h8V29zm19 48a3 3 0 110 6 3 3 0 010-6zm0 2a1 1 0 100 2 1 1 0 000-2zm-46-8c1.053 0 1.918.817 1.995 1.85L41 73v3a2.002 2.002 0 01-1.85 1.995L39 78h-3a2.002 2.002 0 01-1.995-1.85L34 76v-3c0-1.053.817-1.918 1.85-1.995L36 71h3zm10 0c1.053 0 1.918.817 1.995 1.85L51 73v3a2.002 2.002 0 01-1.85 1.995L49 78h-3a2.002 2.002 0 01-1.995-1.85L44 76v-3c0-1.053.817-1.918 1.85-1.995L46 71h3zm-10 2h-3v3h3v-3zm10 0h-3v3h3v-3zM39 61c1.053 0 1.918.817 1.995 1.85L41 63v3a2.002 2.002 0 01-1.85 1.995L39 68h-3a2.002 2.002 0 01-1.995-1.85L34 66v-3c0-1.053.817-1.918 1.85-1.995L36 61h3zm10 0c1.053 0 1.918.817 1.995 1.85L51 63v3a2.002 2.002 0 01-1.85 1.995L49 68h-3a2.002 2.002 0 01-1.995-1.85L44 66v-3c0-1.053.817-1.918 1.85-1.995L46 61h3zm18.3 2H58c-.55 0-1.05.22-1.41.59-.37.36-.59.86-.59 1.41 0 1.05.82 1.918 1.851 1.995L58 67h5.3l4-4zM39 63h-3v3h3v-3zm10 0h-3v3h3v-3zM39 51c1.053 0 1.918.817 1.995 1.85L41 53v3a2.002 2.002 0 01-1.85 1.995L39 58h-3a2.002 2.002 0 01-1.995-1.85L34 56v-3c0-1.053.817-1.918 1.85-1.995L36 51h3zm20 0c1.053 0 1.918.817 1.995 1.85L61 53v3a2.002 2.002 0 01-1.85 1.995L59 58h-3a2.002 2.002 0 01-1.995-1.85L54 56v-3c0-1.053.817-1.918 1.85-1.995L56 51h3zm-10 0c1.053 0 1.918.817 1.995 1.85L51 53v3a2.002 2.002 0 01-1.85 1.995L49 58h-3a2.002 2.002 0 01-1.995-1.85L44 56v-3c0-1.053.817-1.918 1.85-1.995L46 51h3zm-10 2h-3v3h3v-3zm20 0h-3v3h3v-3zm-10 0h-3v3h3v-3zm10-19c1.053 0 1.918.817 1.995 1.85L61 36v8a2.002 2.002 0 01-1.85 1.995L59 46H36a2.002 2.002 0 01-1.995-1.85L34 44v-8c0-1.053.817-1.918 1.85-1.995L36 34h23zm0 2H36v8h23v-8z" fill="#242D3D"/><path fill-rule="evenodd" clip-rule="evenodd" d="M91.51 67.07c-.16-.04-.33-.07-.51-.07H74.62l11.81-11.82 8.49 8.49-3.41 3.4zm-9.32-16.13l2.83 2.83L71.79 67h-5.66l16.06-16.06zm1.42-1.42a2.006 2.006 0 00-2.83 0L69.3 61l-6 6H91c1.1 0 2 .9 2 2 0 .072 0 0 0 0 0-.2-.03-.35-.07-.51l3.4-3.41a2.002 2.002 0 000-2.83L83.61 49.52z" fill="#4871D9"/><path fill-rule="evenodd" clip-rule="evenodd" d="M59 36v8H36c12.333 0 20-2.667 23-8z" fill="#fff"/><path fill-rule="evenodd" clip-rule="evenodd" d="M59 36v8H36c12.333 0 20-2.667 23-8z" fill="#4871D9" fill-opacity=".5"/></svg>